<?xml version="1.0" encoding="UTF-8"?>
<svg width="30px" height="22px" viewBox="0 0 30 22" version="1.1" xmlns="http://www.w3.org/2000/svg" xmlns:xlink="http://www.w3.org/1999/xlink">
    <!-- Generator: Sketch 52.6 (67491) - http://www.bohemiancoding.com/sketch -->
    <title>Shape</title>
    <desc>Created with Sketch.</desc>
    <defs>
        <linearGradient x1="0%" y1="6.24500451e-15%" x2="101.999998%" y2="100.999999%" id="linearGradient-1">
            <stop stop-color="#009BDE" offset="0%"></stop>
            <stop stop-color="#F23FAC" offset="100%"></stop>
        </linearGradient>
    </defs>
    <g id="Symbols" stroke="none" stroke-width="1" fill="none" fill-rule="evenodd">
        <g id="icons/icon_manager_menu3-active" transform="translate(0.000000, -4.000000)" fill="url(#linearGradient-1)">
            <path d="M6.46800983,4 C8.5873599,4 10.3717435,5.75105282 10.3717435,7.94038818 C10.3717435,9.91065516 8.58747131,11.8807764 6.46800983,11.8807764 C4.23695475,11.8807764 2.45286826,10.1297235 2.45286826,7.94038818 C2.45286826,5.7508706 4.23714043,4 6.46800983,4 Z M5.7992652,12.2084131 L7.02649776,12.2084131 C8.81076993,12.2084131 10.4833371,12.9743325 11.487271,14.2883054 C9.14595923,15.3830642 7.47212945,17.7904111 7.47212945,20.5265245 L7.47212945,23.2627108 C5.01911265,23.4819468 2.34290864,23.1530928 0,21.511658 L0,17.7903017 C0,14.7252395 2.56468468,12.2084496 5.79952515,12.2084496 L5.7992652,12.2084131 Z M23.6419869,4 C25.761337,4 27.5457206,5.75105282 27.5457206,7.94038818 C27.5457206,10.1299058 25.7614484,11.8807764 23.6419869,11.8807764 C21.4109318,11.8807764 19.6268453,9.91050938 19.6268453,7.94038818 C19.6268453,5.7508706 21.4111175,4 23.6419869,4 Z M22.9732423,12.2084131 L24.2004748,12.2084131 C27.4339042,12.2084131 30,14.7253489 30,17.7902653 L30,21.5116215 C28.7727674,22.496755 25.7627853,23.4818885 22.6396498,23.3722997 L22.6396498,20.526488 C22.6396498,17.7903017 20.9670827,15.3830642 18.5142144,14.288269 C19.629742,12.9742596 21.3023091,12.2083767 22.9749877,12.2083767 L22.9732423,12.2084131 Z M14.3855482,14.8349742 L15.6127807,14.8349742 C18.84621,14.8349742 21.4123059,17.3519099 21.4123059,20.5265245 L21.4123059,24.1382554 C19.5163287,25.6700576 13.2713575,27.4211105 8.58739704,24.1382554 L8.58739704,20.5265245 C8.58739704,17.3532948 11.2637867,14.8349742 14.3869222,14.8349742 L14.3855482,14.8349742 Z M15.055704,6.73618631 C17.175054,6.73618631 18.9594376,8.37761383 18.9594376,10.5672407 C18.9594376,12.7567583 17.1751654,14.5076289 15.055704,14.5076289 C12.8246489,14.5076289 11.0405624,12.7565761 11.0405624,10.5672407 C11.0405624,8.37772316 12.8248346,6.73618631 15.055704,6.73618631 Z" id="Shape"></path>
        </g>
    </g>
</svg>