<?xml version="1.0" encoding="UTF-8"?>
<svg width="30px" height="16px" viewBox="0 0 30 16" version="1.1" xmlns="http://www.w3.org/2000/svg" xmlns:xlink="http://www.w3.org/1999/xlink">
    <!-- Generator: Sketch 52.6 (67491) - http://www.bohemiancoding.com/sketch -->
    <title>admin-icon1</title>
    <desc>Created with Sketch.</desc>
    <defs>
        <linearGradient x1="0%" y1="6.24500451e-15%" x2="101.999998%" y2="100.999999%" id="linearGradient-1">
            <stop stop-color="#009BDE" offset="0%"></stop>
            <stop stop-color="#F23FAC" offset="100%"></stop>
        </linearGradient>
    </defs>
    <g id="Symbols" stroke="none" stroke-width="1" fill="none" fill-rule="evenodd">
        <g id="icons/icon_manager_menu1-active" transform="translate(0.000000, -8.000000)">
            <g id="admin-icon1" transform="translate(0.000000, 8.000000)">
                <path d="M20.8875095,5.74063146 L15.5869565,14.2173913 C15.2608696,14.7391304 14.5434783,14.9021739 14.0217391,14.576087 C13.5,14.25 13.3369565,13.5326087 13.6630435,13.0108696 C13.6956522,12.9456522 13.7282609,12.9130435 13.7608696,12.8478261 L20.1646652,5.29830344 C18.5885585,4.4160149 16.7714375,3.91304348 14.8369565,3.91304348 C8.80434783,3.91304348 3.91304348,8.80434783 3.91304348,14.8369565 L7.90478794e-13,14.8369565 C7.90478794e-13,6.65217391 6.65217391,-2.66453526e-15 14.8369565,-2.66453526e-15 C17.7355535,-2.66453526e-15 20.4419331,0.834305224 22.7287033,2.2755237 L23.9673913,0.815217391 L22.9608677,2.42487193 C27.0017635,5.07765558 29.673913,9.6494849 29.673913,14.8369565 L25.7608696,14.8369565 C25.7608696,11.0420251 23.82524,7.69874057 20.8875095,5.74063146 Z" id="Path-2" fill="url(#linearGradient-1)"></path>
                <path d="M13.3795687,12.524392 L23.5860904,0.491783289 L24.3913325,1.08030957 L16.0109557,14.4823908 C15.538605,15.2381519 14.5127974,15.4726222 13.7567397,15.0000861 C13.0009785,14.5277354 12.7665082,13.5019279 13.2158299,12.7872628 C13.2411838,12.736555 13.2636009,12.7001271 13.2959314,12.6519977 C13.312514,12.6267576 13.3118359,12.6278594 13.313656,12.6242193 L13.3795687,12.524392 Z" id="Path" stroke="#FFFFFF"></path>
            </g>
        </g>
    </g>
</svg>