<?xml version="1.0" encoding="UTF-8"?>
<svg width="30px" height="30px" viewBox="0 0 30 30" version="1.1" xmlns="http://www.w3.org/2000/svg" xmlns:xlink="http://www.w3.org/1999/xlink">
    <!-- Generator: Sketch 52.6 (67491) - http://www.bohemiancoding.com/sketch -->
    <title>icons/icon_manager_menu2-active</title>
    <desc>Created with Sketch.</desc>
    <defs>
        <linearGradient x1="0%" y1="6.24500451e-15%" x2="101.999998%" y2="100.999999%" id="linearGradient-1">
            <stop stop-color="#009BDE" offset="0%"></stop>
            <stop stop-color="#F23FAC" offset="100%"></stop>
        </linearGradient>
    </defs>
    <g id="icons/icon_manager_menu2-active" stroke="none" stroke-width="1" fill="none" fill-rule="evenodd">
        <g id="admin-icon2" transform="translate(-1.000000, -1.000000)" fill="url(#linearGradient-1)">
            <g id="Group" transform="translate(0.758621, 0.385307)">
                <path d="M11.3395802,20.5509745 C11.3395802,22.6086957 8.26986507,22.6086957 8.26986507,20.5509745 C8.26986507,18.4932534 11.3395802,18.4932534 11.3395802,20.5509745 Z M18.2211394,13.9392804 C18.2211394,15.2886057 16.1634183,15.2886057 16.1634183,13.9392804 C16.1634183,12.589955 18.2211394,12.5562219 18.2211394,13.9392804 Z M12.4865067,13.9392804 C12.4865067,16.1994003 9.07946027,16.1994003 9.07946027,13.9392804 C9.07946027,11.6454273 12.4865067,11.6454273 12.4865067,13.9392804 Z M26.0134933,14.107946 C26.0134933,16.3343328 22.673913,16.3343328 22.673913,14.107946 C22.673913,11.8815592 26.0134933,11.8815592 26.0134933,14.107946 Z M19.9077961,20.2473763 C19.9077961,21.7653673 18.6934033,22.9797601 17.1754123,22.9797601 C15.6574213,22.9797601 14.4430285,21.7653673 14.4430285,20.2473763 C14.4430285,18.7293853 15.6574213,17.5149925 17.1754123,17.5149925 C18.6934033,17.5149925 19.9077961,18.7293853 19.9077961,20.2473763 Z M25.4062969,20.5509745 C25.4062969,21.9677661 23.2811094,21.9677661 23.2811094,20.5509745 C23.2811094,19.1341829 25.4062969,19.1341829 25.4062969,20.5509745 Z M11.8793103,7.52998501 C11.8793103,9.58770615 8.8095952,9.58770615 8.8095952,7.52998501 C8.8095952,5.505997 11.8793103,5.505997 11.8793103,7.52998501 Z M19.8403298,7.22638681 C19.8403298,10.05997 15.589955,10.05997 15.589955,7.22638681 C15.589955,4.3928036 19.8403298,4.3928036 19.8403298,7.22638681 Z M25.946027,7.52998501 C25.946027,8.94677661 23.8208396,8.94677661 23.8208396,7.52998501 C23.7871064,6.1131934 25.946027,6.1131934 25.946027,7.52998501 Z M29.8253373,26.2181409 C30.0952024,26.488006 30.2638681,26.7241379 30.2301349,26.994003 C30.2301349,26.994003 30.2301349,26.6566717 30.2301349,26.994003 C30.2301349,27.3313343 30.1289355,27.5 29.8928036,27.7698651 L29.6904048,27.9722639 C28.982009,28.6806597 28.2398801,29.4227886 27.464018,30.0974513 C26.4857571,31.041979 25.0014993,29.5577211 25.9797601,28.6131934 C26.1484258,28.4445277 26.3508246,28.2758621 26.5194903,28.0734633 L4.01949025,28.0734633 C3.91829085,28.0734633 3.81709145,28.0734633 3.71589205,28.0397301 C3.20989505,28.005997 2.70389805,27.6686657 2.70389805,27.0277361 L2.70389805,4.42653673 C2.53523238,4.5952024 2.36656672,4.7976012 2.16416792,4.96626687 C1.21964018,5.94452774 -0.298350825,4.46026987 0.679910045,3.482009 C1.45577211,2.70614693 2.23163418,1.89655172 2.94002999,1.12068966 C2.94002999,1.05322339 2.94002999,1.05322339 3.00749625,1.01949025 L3.04122939,0.985757121 C3.14242879,0.884557721 3.24362819,0.850824588 3.34482759,0.817091454 C3.61469265,0.715892054 3.85082459,0.715892054 4.12068966,0.817091454 L4.15442279,0.817091454 C4.25562219,0.850824588 4.35682159,0.918290855 4.45802099,0.985757121 C4.45802099,0.985757121 4.49175412,0.985757121 4.49175412,1.01949025 L4.59295352,1.12068966 C5.36881559,1.89655172 6.14467766,2.67241379 6.85307346,3.482009 C7.83133433,4.46026987 6.31334333,5.94452774 5.36881559,4.96626687 C5.20014993,4.7976012 5.03148426,4.5952024 4.82908546,4.42653673 L4.82908546,26.0157421 L26.5194903,26.0157421 L25.9797601,25.476012 C25.0014993,24.5314843 26.4857571,23.0134933 27.464018,23.9917541 L29.8253373,26.2181409 Z" id="Path-2"></path>
            </g>
        </g>
    </g>
</svg>