<?xml version="1.0" encoding="UTF-8"?>
<svg width="120px" height="82px" viewBox="0 0 120 82" version="1.1" xmlns="http://www.w3.org/2000/svg" xmlns:xlink="http://www.w3.org/1999/xlink">
    <!-- Generator: Sketch 52.6 (67491) - http://www.bohemiancoding.com/sketch -->
    <title>icon API</title>
    <desc>Created with Sketch.</desc>
    <defs>
        <linearGradient x1="0%" y1="6.24500451e-15%" x2="101.999998%" y2="100.999999%" id="linearGradient-1">
            <stop stop-color="#009BDE" offset="0%"></stop>
            <stop stop-color="#F23FAC" offset="100%"></stop>
        </linearGradient>
    </defs>
    <g id="Site-vitrine" stroke="none" stroke-width="1" fill="none" fill-rule="evenodd">
        <g id="facelytics.io_UIDA001_homepage-SDK" transform="translate(-408.000000, -4054.000000)" fill="url(#linearGradient-1)">
            <g id="CONTENT" transform="translate(-1.000000, 77.000000)">
                <g id="module_how-to-use" transform="translate(227.000000, 3803.000000)">
                    <g id="content_API" transform="translate(0.000000, 134.000000)">
                        <path d="M231.090909,40.0010933 C213.794545,40.0010933 201.127727,53.7741763 199.727273,69.127105 C189.377545,73.0135798 182,82.9808203 182,94.6670311 C182,109.716564 194.256773,122 209.272727,122 L274.727273,122 C290.381818,122 302,111.024173 302,97.400328 C302,86.9689737 295.416227,76.8842015 285.253182,73.6548113 C284.321014,65.8125725 280.315318,59.6042986 274.770227,56.2724097 C269.502091,53.1013753 263.152727,52.476817 257.255682,54.2650765 C251.987545,46.2520066 242.8475,40 231.090227,40 L231.090909,40.0010933 Z M230.909909,48 C240.972045,48 248.344,53.8563619 251.789909,60.7696897 C252.812636,62.7823529 255.273591,63.5884022 257.287,62.5634158 C261.463136,60.4708037 266.491545,60.7590299 270.412,63.1186168 C274.332455,65.4782036 277.272727,69.7543783 277.272727,76.6996857 C277.288709,78.6855625 278.721591,80.3832132 280.681818,80.7142155 C288.133818,81.9687577 293.636364,89.6027603 293.636364,97.198729 C293.636364,106.34352 286.621136,113.59851 274.545455,113.59851 L209.090909,113.59851 C198.496136,113.59851 190,105.078277 190,94.4654321 C190,85.4808119 196.141682,78.0287513 204.402727,75.9309459 C206.224409,75.4558169 207.492182,73.8008877 207.470909,71.9164161 C207.353718,59.8300506 217.096273,48.0000683 230.909091,48.0000683 L230.909909,48 Z M238.058,106 L233.342,106 C232.813997,106 232.379002,105.877001 232.037,105.631 C231.694998,105.384999 231.458001,105.070002 231.326,104.686 L229.778,100.114 L219.806,100.114 L218.258,104.686 C218.137999,105.022002 217.904002,105.324999 217.556,105.595 C217.207998,105.865001 216.782003,106 216.278,106 L211.526,106 L221.678,79.774 L227.906,79.774 Z M221.21,95.974 L228.374,95.974 L225.962,88.792 C225.805999,88.3359977 225.623001,87.7990031 225.413,87.181 C225.202999,86.5629969 224.996001,85.8940036 224.792,85.174 C224.599999,85.9060037 224.402001,86.5839969 224.198,87.208 C223.993999,87.8320031 223.802001,88.3719977 223.622,88.828 Z M246.266,97.234 L246.266,106 L240.182,106 L240.182,79.774 L249.434,79.774 C251.282009,79.774 252.868993,79.9929978 254.195,80.431 C255.521007,80.8690022 256.612996,81.4719962 257.471,82.24 C258.329004,83.0080038 258.961998,83.9139948 259.37,84.958 C259.778002,86.0020052 259.982,87.1299939 259.982,88.342 C259.982,89.6500065 259.772002,90.8499945 259.352,91.942 C258.931998,93.0340055 258.290004,93.9699961 257.426,94.75 C256.561996,95.5300039 255.467007,96.1389978 254.141,96.577 C252.814993,97.0150022 251.246009,97.234 249.434,97.234 Z M246.266,92.644 L249.434,92.644 C251.018008,92.644 252.157997,92.2660038 252.854,91.51 C253.550003,90.7539962 253.898,89.6980068 253.898,88.342 C253.898,87.741997 253.808001,87.1960025 253.628,86.704 C253.447999,86.2119975 253.175002,85.7890018 252.809,85.435 C252.442998,85.0809982 251.981003,84.808001 251.423,84.616 C250.864997,84.423999 250.202004,84.328 249.434,84.328 L246.266,84.328 Z M269.81,106 L263.69,106 L263.69,79.774 L269.81,79.774 Z" id="icon-API"></path>
                    </g>
                </g>
            </g>
        </g>
    </g>
</svg>