<?xml version="1.0" encoding="UTF-8"?>
<svg width="120px" height="95px" viewBox="0 0 120 95" version="1.1" xmlns="http://www.w3.org/2000/svg" xmlns:xlink="http://www.w3.org/1999/xlink">
    <!-- Generator: Sketch 52.6 (67491) - http://www.bohemiancoding.com/sketch -->
    <title>icon API</title>
    <desc>Created with Sketch.</desc>
    <defs>
        <linearGradient x1="0%" y1="6.24500451e-15%" x2="101.999998%" y2="100.999999%" id="linearGradient-1">
            <stop stop-color="#009BDE" offset="0%"></stop>
            <stop stop-color="#F23FAC" offset="100%"></stop>
        </linearGradient>
    </defs>
    <g id="Site-vitrine" stroke="none" stroke-width="1" fill="none" fill-rule="evenodd">
        <g id="facelytics.io_UIDA001_homepage-SDK" transform="translate(-910.000000, -4044.000000)" fill="url(#linearGradient-1)">
            <g id="CONTENT" transform="translate(-1.000000, 77.000000)">
                <g id="module_how-to-use" transform="translate(227.000000, 3803.000000)">
                    <g id="content_SDK" transform="translate(502.000000, 134.000000)">
                        <path d="M192.357954,57 L291.642046,57 L280.802055,38 L203.197945,38 L192.357954,57 Z M294,61.1329495 L294,65 L190,65 L190,61.1329495 L190,117 L294,117 L294,61.1329495 Z M202.890133,30 L281.109867,30 C283.792346,30 286.268868,31.4383092 287.598165,33.7682583 L301.018298,57.2906519 C301.661646,58.4182931 302,59.6941362 302,60.9923934 L302,117.53 C302,121.655567 298.655567,125 294.53,125 L189.47,125 C185.344433,125 182,121.655567 182,117.53 L182,60.9923934 C182,59.6941362 182.338354,58.4182931 182.981702,57.2906519 L196.401835,33.7682583 C197.731132,31.4383092 200.207654,30 202.890133,30 Z M222.812,85.102 C222.631999,85.3900014 222.443001,85.6059993 222.245,85.75 C222.046999,85.8940007 221.792002,85.966 221.48,85.966 C221.203999,85.966 220.907002,85.8790009 220.589,85.705 C220.270998,85.5309991 219.911002,85.3360011 219.509,85.12 C219.106998,84.9039989 218.648003,84.7090009 218.132,84.535 C217.615997,84.3609991 217.028003,84.274 216.368,84.274 C215.227994,84.274 214.379003,84.5169976 213.821,85.003 C213.262997,85.4890024 212.984,86.1459959 212.984,86.974 C212.984,87.5020026 213.151998,87.9399983 213.488,88.288 C213.824002,88.6360017 214.264997,88.9359987 214.811,89.188 C215.357003,89.4400013 215.980996,89.6709989 216.683,89.881 C217.385004,90.091001 218.101996,90.3249987 218.834,90.583 C219.566004,90.8410013 220.282996,91.1439983 220.985,91.492 C221.687004,91.8400017 222.310997,92.2839973 222.857,92.824 C223.403003,93.3640027 223.843998,94.0209961 224.18,94.795 C224.516002,95.5690039 224.684,96.5019945 224.684,97.594 C224.684,98.8060061 224.474002,99.9399947 224.054,100.996 C223.633998,102.052005 223.025004,102.972996 222.227,103.759 C221.428996,104.545004 220.445006,105.162998 219.275,105.613 C218.104994,106.063002 216.776007,106.288 215.288,106.288 C214.471996,106.288 213.641004,106.204001 212.795,106.036 C211.948996,105.867999 211.130004,105.631002 210.338,105.325 C209.545996,105.018998 208.802003,104.656002 208.106,104.236 C207.409997,103.815998 206.804003,103.348003 206.288,102.832 L208.088,99.988 C208.220001,99.7719989 208.405999,99.5980007 208.646,99.466 C208.886001,99.3339993 209.143999,99.268 209.42,99.268 C209.780002,99.268 210.142998,99.3819989 210.509,99.61 C210.875002,99.8380011 211.288998,100.089999 211.751,100.366 C212.213002,100.642001 212.743997,100.893999 213.344,101.122 C213.944003,101.350001 214.651996,101.464 215.468,101.464 C216.572006,101.464 217.429997,101.221002 218.042,100.735 C218.654003,100.248998 218.96,99.4780053 218.96,98.422 C218.96,97.8099969 218.792002,97.3120019 218.456,96.928 C218.119998,96.5439981 217.679003,96.2260013 217.133,95.974 C216.586997,95.7219987 215.966003,95.500001 215.27,95.308 C214.573997,95.115999 213.860004,94.9030012 213.128,94.669 C212.395996,94.4349988 211.682003,94.1470017 210.986,93.805 C210.289997,93.4629983 209.669003,93.0130028 209.123,92.455 C208.576997,91.8969972 208.136002,91.2010042 207.8,90.367 C207.463998,89.5329958 207.296,88.5040061 207.296,87.28 C207.296,86.2959951 207.493998,85.3360047 207.89,84.4 C208.286002,83.4639953 208.867996,82.6300037 209.636,81.898 C210.404004,81.1659963 211.345994,80.5810022 212.462,80.143 C213.578006,79.7049978 214.855993,79.486 216.296,79.486 C217.100004,79.486 217.882996,79.5489994 218.645,79.675 C219.407004,79.8010006 220.129997,79.9869988 220.814,80.233 C221.498003,80.4790012 222.136997,80.7729983 222.731,81.115 C223.325003,81.4570017 223.855998,81.8439978 224.324,82.276 L222.812,85.102 Z M251.504,92.878 C251.504,94.7740095 251.177003,96.522992 250.523,98.125 C249.868997,99.727008 248.948006,101.112994 247.76,102.283 C246.571994,103.453006 245.141008,104.364997 243.467,105.019 C241.792992,105.673003 239.93601,106 237.896,106 L227.708,106 L227.708,79.774 L237.896,79.774 C239.93601,79.774 241.792992,80.1039967 243.467,80.764 C245.141008,81.4240033 246.571994,82.3359942 247.76,83.5 C248.948006,84.6640058 249.868997,86.046992 250.523,87.649 C251.177003,89.251008 251.504,90.9939906 251.504,92.878 Z M245.276,92.878 C245.276,91.5819935 245.108002,90.4120052 244.772,89.368 C244.435998,88.3239948 243.953003,87.4390036 243.323,86.713 C242.692997,85.9869964 241.922005,85.4290019 241.01,85.039 C240.097995,84.648998 239.060006,84.454 237.896,84.454 L233.828,84.454 L233.828,101.32 L237.896,101.32 C239.060006,101.32 240.097995,101.125002 241.01,100.735 C241.922005,100.344998 242.692997,99.7870036 243.323,99.061 C243.953003,98.3349964 244.435998,97.4500052 244.772,96.406 C245.108002,95.3619948 245.276,94.1860065 245.276,92.878 Z M260.504,90.394 L261.476,90.394 C262.376005,90.394 263.023998,90.1120028 263.42,89.548 L269.324,80.98 C269.648002,80.5119977 270.016998,80.1940008 270.431,80.026 C270.845002,79.8579992 271.351997,79.774 271.952,79.774 L277.244,79.774 L269.468,90.376 C269.191999,90.7600019 268.904001,91.0779987 268.604,91.33 C268.303999,91.5820013 267.998002,91.7919992 267.686,91.96 C268.142002,92.1280008 268.558998,92.3589985 268.937,92.653 C269.315002,92.9470015 269.659998,93.3399975 269.972,93.832 L277.892,106 L272.456,106 C272.107998,106 271.811001,105.976 271.565,105.928 C271.318999,105.88 271.106001,105.808 270.926,105.712 C270.745999,105.616 270.590001,105.499001 270.458,105.361 C270.325999,105.222999 270.200001,105.064001 270.08,104.884 L264.14,95.758 C263.923999,95.4219983 263.651002,95.1850007 263.321,95.047 C262.990998,94.9089993 262.544003,94.84 261.98,94.84 L260.504,94.84 L260.504,106 L254.42,106 L254.42,79.774 L260.504,79.774 L260.504,90.394 Z" id="icon-API"></path>
                    </g>
                </g>
            </g>
        </g>
    </g>
</svg>